<svg id="Icons" height="512" viewBox="0 0 74 74" width="512" xmlns="http://www.w3.org/2000/svg"><path d="m67 66h-60a5.006 5.006 0 0 1 -5-5v-53a5.006 5.006 0 0 1 5-5h60a5.006 5.006 0 0 1 5 5v53a5.006 5.006 0 0 1 -5 5zm-60-61a3 3 0 0 0 -3 3v53a3 3 0 0 0 3 3h60a3 3 0 0 0 3-3v-53a3 3 0 0 0 -3-3z"/><path d="m12 41.5a1 1 0 0 1 -1-1v-12a1 1 0 0 1 2 0v12a1 1 0 0 1 -1 1z"/><path d="m62 57h-50a1 1 0 0 1 -1-1v-7.5a1 1 0 0 1 2 0v6.5h48v-41h-48v6.5a1 1 0 0 1 -2 0v-7.5a1 1 0 0 1 1-1h50a1 1 0 0 1 1 1v43a1 1 0 0 1 -1 1z"/><path d="m21 71h-8a1 1 0 0 1 -1-1v-5a1 1 0 0 1 1-1h8a1 1 0 0 1 1 1v5a1 1 0 0 1 -1 1zm-7-2h6v-3h-6z"/><path d="m61 71h-8a1 1 0 0 1 -1-1v-5a1 1 0 0 1 1-1h8a1 1 0 0 1 1 1v5a1 1 0 0 1 -1 1zm-7-2h6v-3h-6z"/><path d="m13.458 29.5h-2.916a2 2 0 0 1 -2-2v-6a2 2 0 0 1 2-2h2.917a2 2 0 0 1 2 2v6a2 2 0 0 1 -2.001 2zm0-8h-2.916v6h2.917z"/><path d="m13.458 49.5h-2.916a2 2 0 0 1 -2-2v-6a2 2 0 0 1 2-2h2.917a2 2 0 0 1 2 2v6a2 2 0 0 1 -2.001 2zm0-8h-2.916v6h2.917z"/><path d="m40.721 45.471a10.971 10.971 0 1 1 10.971-10.971 10.984 10.984 0 0 1 -10.971 10.971zm0-19.942a8.971 8.971 0 1 0 8.971 8.971 8.981 8.981 0 0 0 -8.971-8.971z"/><path d="m40.721 39.876a5.376 5.376 0 1 1 5.379-5.376 5.382 5.382 0 0 1 -5.379 5.376zm0-8.752a3.376 3.376 0 1 0 3.379 3.376 3.38 3.38 0 0 0 -3.379-3.376z"/><path d="m40.721 31.124a1 1 0 0 1 -1-1v-5.6a1 1 0 1 1 2 0v5.6a1 1 0 0 1 -1 1z"/><path d="m40.721 45.471a1 1 0 0 1 -1-1v-5.6a1 1 0 0 1 2 0v5.6a1 1 0 0 1 -1 1z"/><path d="m37.627 32.406a1 1 0 0 1 -.707-.293l-3.957-3.957a1 1 0 0 1 1.414-1.414l3.957 3.958a1 1 0 0 1 -.707 1.707z"/><path d="m47.772 42.551a1 1 0 0 1 -.707-.293l-3.957-3.958a1 1 0 0 1 1.414-1.414l3.957 3.957a1 1 0 0 1 -.707 1.707z"/><path d="m36.345 35.5h-5.6a1 1 0 0 1 0-2h5.6a1 1 0 0 1 0 2z"/><path d="m50.692 35.5h-5.592a1 1 0 0 1 0-2h5.6a1 1 0 0 1 0 2z"/><path d="m33.67 42.551a1 1 0 0 1 -.707-1.707l3.957-3.957a1 1 0 0 1 1.414 1.413l-3.957 3.957a1 1 0 0 1 -.707.294z"/><path d="m43.815 32.406a1 1 0 0 1 -.707-1.707l3.957-3.957a1 1 0 0 1 1.414 1.414l-3.957 3.957a1 1 0 0 1 -.707.293z"/></svg>